<svg xmlns="http://www.w3.org/2000/svg" id="idea" viewBox="0 0 64 64">
  <path d="M44.67 12.84c-4.08-3.65-9.34-5.33-14.83-4.72-8.87.98-15.91 8.14-16.75 17.04-.67 7.14 2.64 13.98 8.66 17.84 1.11.71 1.86 1.79 2.13 3h-.88c-.55 0-1 .45-1 1s.45 1 1 1h1v3h-1c-.55 0-1 .45-1 1s.45 1 1 1h1v2c0 1.65 1.35 3 3 3h1v1c0 1.65 1.35 3 3 3h2c1.65 0 3-1.35 3-3v-1h1c1.65 0 3-1.35 3-3v-2h1c.55 0 1-.45 1-1s-.45-1-1-1h-1v-3h1c.55 0 1-.45 1-1s-.45-1-1-1h-.89c.27-1.2 1.01-2.28 2.12-2.99 5.49-3.52 8.76-9.5 8.76-16.01 0-5.4-2.31-10.56-6.33-14.16ZM34 59c0 .55-.45 1-1 1h-2c-.55 0-1-.45-1-1v-1h4v1ZM38 55c0 .55-.45 1-1 1h-10c-.55 0-1-.45-1-1v-2h12v2ZM38 51h-12v-3h12v3ZM28 30h-1c-.55 0-1-.45-1-1s.45-1 1-1 1 .45 1 1v1ZM30 46v-14h4v14h-4ZM41.16 41.32c-1.69 1.08-2.79 2.77-3.08 4.68h-2.08v-14h1c1.65 0 3-1.35 3-3s-1.35-3-3-3-3 1.35-3 3v1h-4v-1c0-1.65-1.35-3-3-3s-3 1.35-3 3 1.35 3 3 3h1v14h-2.07c-.28-1.89-1.4-3.59-3.1-4.68-5.38-3.46-8.35-9.58-7.75-15.97.75-7.95 7.05-14.36 14.98-15.24 4.92-.54 9.63.96 13.28 4.22 3.6 3.22 5.66 7.84 5.66 12.67 0 5.82-2.93 11.18-7.84 14.32ZM36 30v-1c0-.55.45-1 1-1s1 .45 1 1-.45 1-1 1h-1ZM32 6c.55 0 1-.45 1-1v-2c0-.55-.45-1-1-1s-1 .45-1 1v2c0 .55.45 1 1 1ZM56 26h-2c-.55 0-1 .45-1 1s.45 1 1 1h2c.55 0 1-.45 1-1s-.45-1-1-1ZM10 26h-2c-.55 0-1 .45-1 1s.45 1 1 1h2c.55 0 1-.45 1-1s-.45-1-1-1ZM47.56 12.44c.26 0 .51-.1.71-.29l1.41-1.41c.39-.39.39-1.02 0-1.41s-1.02-.39-1.41 0l-1.41 1.41c-.39.39-.39 1.02 0 1.41.2.2.45.29.71.29Z" style="stroke-width:0"></path>
  <path d="m15.74 41.85-1.41 1.41c-.39.39-.39 1.02 0 1.41.2.2.45.29.71.29s.51-.1.71-.29l1.41-1.41c.39-.39.39-1.02 0-1.41s-1.02-.39-1.41 0ZM48.26 41.85c-.39-.39-1.02-.39-1.41 0s-.39 1.02 0 1.41l1.41 1.41c.2.2.45.29.71.29s.51-.1.71-.29c.39-.39.39-1.02 0-1.41l-1.41-1.41ZM15.74 12.15c.2.2.45.29.71.29s.51-.1.71-.29c.39-.39.39-1.02 0-1.41l-1.41-1.41c-.39-.39-1.02-.39-1.41 0s-.39 1.02 0 1.41l1.41 1.41Z" style="stroke-width:0"></path>
</svg>
