<svg xmlns="http://www.w3.org/2000/svg" viewBox="0 0 100 100" id="people-conference">
  <path d="M95 3.5H5c-.828 0-1.5.671-1.5 1.5V55c0 .829.672 1.5 1.5 1.5H95c.828 0 1.5-.671 1.5-1.5V5c0-.829-.672-1.5-1.5-1.5zM14 32.5c0-3.309 2.691-6 6-6s6 2.691 6 6-2.691 6-6 6-6-2.691-6-6zm-7.412 21c.749-6.74 6.475-12 13.412-12s12.662 5.26 13.412 12H6.588zm86.912 0H36.424c-.586-6.462-4.914-11.845-10.794-13.99 2.052-1.651 3.37-4.178 3.37-7.01 0-4.962-4.037-9-9-9s-9 4.038-9 9c0 2.832 1.318 5.359 3.37 7.01-3.201 1.168-5.942 3.289-7.87 6.033V6.5H93.5V53.5zM85.63 79.51c2.052-1.651 3.37-4.178 3.37-7.01 0-4.962-4.037-9-9-9s-9 4.038-9 9c0 2.832 1.318 5.359 3.37 7.01-4.161 1.518-7.539 4.655-9.37 8.656-1.83-4.001-5.209-7.138-9.37-8.656 2.052-1.651 3.37-4.178 3.37-7.01 0-4.962-4.037-9-9-9s-9 4.038-9 9c0 2.832 1.318 5.359 3.37 7.01-4.161 1.518-7.539 4.655-9.37 8.656-1.83-4.001-5.209-7.138-9.37-8.656 2.052-1.651 3.37-4.178 3.37-7.01 0-4.962-4.037-9-9-9s-9 4.038-9 9c0 2.832 1.318 5.359 3.37 7.01-6.33 2.309-10.87 8.371-10.87 15.49 0 .829.672 1.5 1.5 1.5H95c.828 0 1.5-.671 1.5-1.5 0-7.119-4.54-13.181-10.87-15.49zm-11.63-7.01c0-3.309 2.691-6 6-6s6 2.691 6 6-2.691 6-6 6-6-2.691-6-6zm6 9c6.937 0 12.662 5.26 13.412 12h-26.823c.749-6.74 6.475-12 13.412-12zm-36-9c0-3.309 2.691-6 6-6s6 2.691 6 6-2.691 6-6 6-6-2.691-6-6zm6 9c6.937 0 12.662 5.26 13.412 12h-26.823c.749-6.74 6.475-12 13.412-12zm-36-9c0-3.309 2.691-6 6-6s6 2.691 6 6-2.691 6-6 6-6-2.691-6-6zm6 9c6.937 0 12.662 5.26 13.412 12H6.588c.749-6.74 6.475-12 13.412-12z"></path>
  <path d="M42.5,50.818c.384,0,.768-.146,1.061-.439l17.349-17.349,7.121,7.121c.293,.293,.677,.439,1.061,.439s.768-.146,1.061-.439l15.849-15.849v.47c0,.829,.672,1.5,1.5,1.5s1.5-.671,1.5-1.5v-4.091c0-.194-.04-.377-.107-.547-.003-.008-.004-.015-.007-.023-.152-.37-.447-.664-.816-.816-.007-.003-.015-.004-.023-.007-.17-.067-.354-.107-.547-.107h-4.091c-.828,0-1.5,.671-1.5,1.5s.672,1.5,1.5,1.5h.47l-14.788,14.788-7.121-7.121c-.586-.586-1.535-.586-2.121,0l-18.409,18.409c-.586,.585-.586,1.536,0,2.121,.293,.293,.677,.439,1.061,.439Z"></path>
</svg>
