<svg xmlns="http://www.w3.org/2000/svg" viewBox="0 0 512 512" id="balance">
  <path d="M499.092,232.9,439.579,104h40.442A8.157,8.157,0,0,0,488,95.8v-40a7.811,7.811,0,0,0-7.979-7.8H287.685a42.229,42.229,0,0,0-63.37,0H30.979A7.811,7.811,0,0,0,23,55.8v40a8.157,8.157,0,0,0,7.979,8.2H72.421L12.907,232.9a7.952,7.952,0,0,0-7.171,7.907A79.15,79.15,0,0,0,141,296.643a78.261,78.261,0,0,0,23.624-55.879,7.907,7.907,0,0,0-7.7-7.887L97.423,104H224.315c1.153,1,2.383,2.33,3.685,3.482V368.1A68.293,68.293,0,0,0,188.052,423H155.569A7.24,7.24,0,0,0,148,430.515v40c0,4.418,3.151,8.485,7.569,8.485H356.431c4.418,0,7.569-4.067,7.569-8.485v-40A7.24,7.24,0,0,0,356.431,423H323.948A68.293,68.293,0,0,0,284,368.1V107.482c1.3-1.152,2.532-2.482,3.685-3.482H414.577l-59.5,128.874a7.948,7.948,0,0,0-7.7,7.934,79.15,79.15,0,0,0,135.26,55.835,78.147,78.147,0,0,0,23.624-55.829A7.958,7.958,0,0,0,499.092,232.9Zm-17.64.1H372.7l54.374-117.862ZM256,49.485A26.313,26.313,0,1,1,229.687,75.8,26.343,26.343,0,0,1,256,49.485ZM84.922,115.138,139.3,233H30.548Zm0,189.048A63.346,63.346,0,0,1,22.24,249H148.086C143.982,279,116.725,304.186,84.922,304.186ZM39,88V64H215.431a42.156,42.156,0,0,0,0,24ZM348,463H164V439H348Zm-40.178-40H204.178c3.863-26,25.631-44.431,51.822-44.431S303.959,397,307.822,423ZM268,363.159a67.452,67.452,0,0,0-24,0V116.367a42.18,42.18,0,0,0,24,0ZM296.569,64H472V88H296.569a42.156,42.156,0,0,0,0-24Zm130,240.186A63.348,63.348,0,0,1,363.884,249H489.73C485.626,279,458.369,304.186,426.566,304.186Z"></path>
</svg>
