<svg xmlns="http://www.w3.org/2000/svg" enable-background="new 0 0 64 64" viewBox="0 0 64 64" id="cards">
  <path d="M63.2,10.3c-0.8-1.1-1.9-1.8-3.2-2L40.3,5.1c-0.6-1.8-2.5-2.9-4.5-2.6L3.3,7.9c-1.1,0.2-2,0.8-2.6,1.7
		c-0.6,0.8-0.8,1.9-0.6,2.9L8.5,58c0.1,0.6,0.4,1.1,0.7,1.6c0,0.1,0.1,0.1,0.1,0.1c0.8,0.9,1.9,1.5,3.2,1.5c0.2,0,0.5,0,0.7-0.1
		l17.1-2.9l20,3.3c0.3,0,0.6,0.1,0.8,0.1c2.3,0,4.4-1.6,4.8-3.9l8-43.9C64.1,12.6,63.9,11.3,63.2,10.3z M2,12.1
		c-0.1-0.5,0-1,0.3-1.4c0.3-0.5,0.8-0.8,1.4-0.9l32.4-5.5c0.1,0,0.3,0,0.4,0c1,0,1.9,0.7,2,1.6L46.9,51l-14-23.8
		c-0.2-0.3-0.5-0.5-0.9-0.5c-0.4,0-0.7,0.3-0.8,0.6l-8,19.8l-4.4-8.3c-0.2-0.3-0.5-0.5-0.9-0.5c-0.4,0-0.7,0.3-0.8,0.6l-6.8,17
		L2,12.1z M12.9,59.2c-0.6,0.1-1.3-0.1-1.7-0.4L18,41.6l4.4,8.3c0.2,0.3,0.5,0.5,0.9,0.5c0.4,0,0.7-0.3,0.8-0.6l8-19.9l13.9,23.5
		c-0.2,0.1-0.5,0.2-0.8,0.3c0,0,0,0,0,0L12.9,59.2z M62,13.4l-8,43.9c-0.3,1.5-1.8,2.5-3.4,2.3l-14.4-2.4l9.4-1.6
		c0.9-0.2,1.7-0.6,2.3-1.3c0,0,0.1-0.1,0.1-0.1c0.1-0.1,0.1-0.2,0.2-0.2c0.6-0.8,0.8-1.9,0.6-2.9l-8.2-44l18.9,3.1
		c0.8,0.1,1.5,0.6,2,1.2C62,12,62.1,12.7,62,13.4z"></path>
  <path d="M20.5,27.8c3.6,0,6.6-2.8,6.6-6.3c0-3.5-3-6.3-6.6-6.3s-6.6,2.8-6.6,6.3C13.9,25,16.8,27.8,20.5,27.8z M20.5,17.1
		c2.6,0,4.7,2,4.7,4.4c0,2.4-2.1,4.4-4.7,4.4c-2.6,0-4.7-2-4.7-4.4C15.8,19.1,17.9,17.1,20.5,17.1z"></path>
</svg>
