<svg xmlns="http://www.w3.org/2000/svg" viewBox="0 0 64 64" id="remove-message">
  <g>
    <path fill="#231f20" d="M7,41a1,1,0,0,0,1-1V36a1,1,0,0,0-2,0v4A1,1,0,0,0,7,41Z"></path>
    <path fill="#231f20" d="M58,34.5V18a5,5,0,0,0-5-5H11a5,5,0,0,0-5,5V32a1,1,0,0,0,2,0V18a3,3,0,0,1,.68-1.9h0L28.46,35.88a5,5,0,0,0,7.08,0L55.32,16.1h0A3,3,0,0,1,56,18V33.19a11.36,11.36,0,0,0-3.25-1,1,1,0,0,0-.31,2A8.89,8.89,0,0,1,56,35.51a8.46,8.46,0,0,1,2,1.82A9,9,0,0,1,46.89,51a8.87,8.87,0,0,1-2.59-2,9,9,0,0,1-.46-11.46A9.82,9.82,0,0,1,45,36.29a8.94,8.94,0,0,1,2.4-1.54,1,1,0,1,0-.8-1.83,10.78,10.78,0,0,0-2.93,1.88,11.44,11.44,0,0,0-1.42,1.53A11,11,0,0,0,41.78,49H11a3,3,0,0,1-3-3V44a1,1,0,0,0-2,0v2a5,5,0,0,0,5,5H43.45A11,11,0,1,0,58,34.5Zm-23.88,0a3.06,3.06,0,0,1-4.24,0L10.47,15.05h0A3.07,3.07,0,0,1,11,15H53a3.07,3.07,0,0,1,.53.05h0Z"></path>
    <path fill="#231f20" d="M55.24,38.76a1,1,0,0,0-1.41,0L51,41.59l-2.83-2.83a1,1,0,0,0-1.41,1.41L49.59,43l-2.83,2.83a1,1,0,0,0,0,1.41,1,1,0,0,0,1.41,0L51,44.41l2.83,2.83a1,1,0,0,0,1.41,0,1,1,0,0,0,0-1.41L52.41,43l2.83-2.83A1,1,0,0,0,55.24,38.76Z"></path>
  </g>
</svg>
