<svg xmlns="http://www.w3.org/2000/svg" viewBox="0 0 512 512" id="social-media">
  <path d="M236,355.24a16.39,16.39,0,0,1-16.38-16.38V263.25a16.38,16.38,0,0,1,24.94-14l61.65,37.81a16.38,16.38,0,0,1,0,27.93l-61.65,37.8A16.35,16.35,0,0,1,236,355.24Zm0-92V338.9l61.65-37.85Z"></path>
  <path d="M256,415.73A114.68,114.68,0,1,1,370.68,301.05,114.81,114.81,0,0,1,256,415.73Zm0-213a98.3,98.3,0,1,0,98.29,98.29A98.4,98.4,0,0,0,256,202.76Z"></path>
  <path d="M477.16,466.92H34.84A32.8,32.8,0,0,1,2.07,434.16V77.84A32.8,32.8,0,0,1,34.84,45.08H477.16a32.8,32.8,0,0,1,32.77,32.76V434.16A32.8,32.8,0,0,1,477.16,466.92ZM34.84,61.46A16.4,16.4,0,0,0,18.45,77.84V434.16a16.4,16.4,0,0,0,16.39,16.38H477.16a16.4,16.4,0,0,0,16.39-16.38V77.84a16.4,16.4,0,0,0-16.39-16.38Z"></path>
  <path d="M459.1 151.56H10.26a8.19 8.19 0 110-16.38H459.1a8.19 8.19 0 010 16.38zM65 106.51H53.78a8.19 8.19 0 110-16.38H65a8.19 8.19 0 010 16.38zM114.19 106.51H102.93a8.19 8.19 0 110-16.38h11.26a8.19 8.19 0 010 16.38zM163.34 106.51H152.07a8.19 8.19 0 110-16.38h11.27a8.19 8.19 0 010 16.38z"></path>
</svg>
