<svg xmlns="http://www.w3.org/2000/svg" viewBox="0 0 64 64" id="analysis-setting">
  <path d="M3.108 8.343c-2.079 3.431-1.145 8.889 2.272 13.272a1.006 1.006 0 0 0 1.222.286 1 1 0 0 0 .542-1.131c-.359-1.523-.602-3.837.296-6.242a5.487 5.487 0 0 1 2.782-3.023l.688-.34.633 1.342c.173.365.558.606.948.572.402-.018.755-.274.895-.652l2.554-6.912a1 1 0 0 0-.637-1.3L8.461 2.047a1 1 0 0 0-1.206 1.38l.656 1.39-1.095.552c-1.614.607-2.895 1.634-3.708 2.974zM7.669 7.18l2.013-1.017a1 1 0 0 0 .453-1.319l-.094-.198 3.658 1.159-1.365 3.694-.055-.115a1 1 0 0 0-1.354-.466L9.359 9.7a7.509 7.509 0 0 0-3.806 4.162 11.622 11.622 0 0 0-.678 2.964c-1.135-2.771-1.21-5.542-.056-7.446.584-.964 1.532-1.709 2.743-2.154.037-.014.073-.029.107-.046zm46.109 45.315-.688.34-.633-1.342a.987.987 0 0 0-.948-.572 1.001 1.001 0 0 0-.895.652l-2.554 6.912a1 1 0 0 0 .637 1.3l6.841 2.168a1 1 0 0 0 1.207-1.38l-.656-1.39 1.095-.553c1.614-.606 2.896-1.634 3.708-2.974 2.079-3.431 1.145-8.889-2.272-13.272a1.002 1.002 0 0 0-1.763.845c.359 1.523.602 3.837-.296 6.242a5.487 5.487 0 0 1-2.783 3.024zm4.668-2.357c.379-1.015.587-2.015.678-2.964 1.136 2.771 1.211 5.542.057 7.446-.584.964-1.532 1.709-2.743 2.154-.036.014-.072.028-.106.046l-2.013 1.017a1 1 0 0 0-.453 1.319l.094.198-3.658-1.159 1.365-3.694.055.115a1 1 0 0 0 1.354.466l1.565-.782a7.507 7.507 0 0 0 3.805-4.162zm-6.942-29.746a.999.999 0 0 0 0-1.414l-6.481-6.481a.999.999 0 0 0-1.414 0l-1.372 1.372a.821.821 0 0 1-.958.153 20.007 20.007 0 0 0-3.127-1.296.82.82 0 0 1-.568-.785V10a1 1 0 0 0-1-1h-9.166a1 1 0 0 0-1 1v1.94a.82.82 0 0 1-.566.784 20.091 20.091 0 0 0-3.128 1.296.82.82 0 0 1-.958-.151l-1.373-1.373a.999.999 0 0 0-1.414 0l-6.481 6.481a.999.999 0 0 0 0 1.414l1.372 1.372a.82.82 0 0 1 .153.958 20.08 20.08 0 0 0-1.297 3.128.815.815 0 0 1-.784.567H10a1 1 0 0 0-1 1v9.166a1 1 0 0 0 1 1h1.94a.82.82 0 0 1 .784.566 20.091 20.091 0 0 0 1.296 3.128.82.82 0 0 1-.151.958l-1.373 1.373a.999.999 0 0 0 0 1.414l6.481 6.481a.999.999 0 0 0 1.414 0l1.372-1.372a.824.824 0 0 1 .958-.153c1.002.519 2.055.955 3.127 1.296a.82.82 0 0 1 .568.785V54a1 1 0 0 0 1 1h9.166a1 1 0 0 0 1-1v-1.94a.82.82 0 0 1 .566-.784 20.091 20.091 0 0 0 3.128-1.296.82.82 0 0 1 .958.151l1.373 1.373a.999.999 0 0 0 1.414 0l6.481-6.481a.999.999 0 0 0 0-1.414l-1.372-1.372a.82.82 0 0 1-.153-.958 20.007 20.007 0 0 0 1.296-3.127.82.82 0 0 1 .785-.568H54a1 1 0 0 0 1-1v-9.166a1 1 0 0 0-1-1h-1.94a.817.817 0 0 1-.784-.566 20.091 20.091 0 0 0-1.296-3.128.82.82 0 0 1 .151-.958l1.373-1.374zm.556 8.025H53v7.166h-.94a2.813 2.813 0 0 0-2.69 1.961c-.308.966-.7 1.913-1.167 2.815a2.815 2.815 0 0 0 .515 3.29l.666.666-5.067 5.067-.667-.667a2.814 2.814 0 0 0-3.29-.513c-.901.466-1.849.858-2.816 1.167a2.812 2.812 0 0 0-1.959 2.689V53h-7.166v-.94a2.813 2.813 0 0 0-1.961-2.69c-.966-.308-1.913-.7-2.815-1.167a2.814 2.814 0 0 0-3.29.515l-.666.666-5.067-5.067.667-.667a2.814 2.814 0 0 0 .513-3.29 18.218 18.218 0 0 1-1.167-2.816 2.812 2.812 0 0 0-2.689-1.959H11v-7.166h.94a2.811 2.811 0 0 0 2.69-1.961c.308-.966.7-1.913 1.167-2.815a2.815 2.815 0 0 0-.515-3.29l-.666-.666 5.067-5.067.667.667a2.814 2.814 0 0 0 3.29.513 18.218 18.218 0 0 1 2.816-1.167 2.812 2.812 0 0 0 1.959-2.689V11h7.166v.94c0 1.234.787 2.314 1.961 2.69.966.308 1.913.7 2.815 1.167a2.819 2.819 0 0 0 3.29-.515l.666-.666 5.067 5.067-.667.667a2.814 2.814 0 0 0-.513 3.29c.466.901.858 1.849 1.166 2.815a2.818 2.818 0 0 0 2.694 1.962z"></path>
  <path d="M32 16c-8.822 0-16 7.178-16 16s7.178 16 16 16 16-7.178 16-16-7.178-16-16-16zm0 30c-7.72 0-14-6.28-14-14s6.28-14 14-14 14 6.28 14 14-6.28 14-14 14z"></path>
  <path d="M34 28h-4a1 1 0 0 0-1 1v9a1 1 0 0 0 1 1h4a1 1 0 0 0 1-1v-9a1 1 0 0 0-1-1zm-1 9h-2v-7h2v7zm-6-6h-4a1 1 0 0 0-1 1v6a1 1 0 0 0 1 1h4a1 1 0 0 0 1-1v-6a1 1 0 0 0-1-1zm-1 6h-2v-4h2v4zm15-12h-4a1 1 0 0 0-1 1v12a1 1 0 0 0 1 1h4a1 1 0 0 0 1-1V26a1 1 0 0 0-1-1zm-1 12h-2V27h2v10z"></path>
</svg>
