<svg xmlns="http://www.w3.org/2000/svg" width="48" height="48" enable-background="new 0 0 48 48" viewBox="0 0 48 48" id="like-followers">
  <path d="M39,18c-1.396,0-2.783-0.328-4.011-0.947c-0.163-0.076-0.354-0.178-0.53-0.292C31.726,15.195,30,12.211,30,9
		c0-4.962,4.037-9,9-9s9,4.038,9,9c0,3.211-1.726,6.195-4.503,7.788c-0.133,0.087-0.323,0.189-0.514,0.278
		C41.783,17.672,40.396,18,39,18z M39,2c-3.859,0-7,3.14-7,7c0,2.497,1.34,4.815,3.497,6.052c0.146,0.092,0.257,0.15,0.367,0.202
		c1.951,0.984,4.348,0.971,6.244,0.013c0.138-0.065,0.248-0.123,0.351-0.188C44.66,13.815,46,11.497,46,9C46,5.14,42.859,2,39,2z"></path>
  <path d="M39,12c-2.206,0-4-1.794-4-4s1.794-4,4-4s4,1.794,4,4S41.206,12,39,12z M39,6c-1.103,0-2,0.897-2,2s0.897,2,2,2
		s2-0.897,2-2S40.103,6,39,6z"></path>
  <path d="M39 18c-1.396 0-2.783-.328-4.011-.947-.163-.076-.354-.178-.53-.292C34.173 16.577 34 16.26 34 15.92V15c0-2.757 2.243-5 5-5 1.323 0 2.578.518 3.532 1.458C43.482 12.421 44 13.676 44 15v.92c0 .34-.173.657-.459.841-.177.114-.367.216-.558.305C41.783 17.672 40.396 18 39 18zM36 15.321c1.888.901 4.164.885 6 0V15c0-.795-.313-1.551-.882-2.128C40.551 12.313 39.795 12 39 12c-1.654 0-3 1.346-3 3V15.321zM43 15.92h.01H43zM9 18c-1.396 0-2.783-.328-4.011-.947-.163-.076-.354-.178-.53-.292C1.726 15.195 0 12.211 0 9c0-4.962 4.037-9 9-9s9 4.038 9 9c0 3.211-1.726 6.195-4.503 7.788-.133.087-.323.189-.514.278C11.783 17.672 10.396 18 9 18zM9 2C5.141 2 2 5.14 2 9c0 2.497 1.34 4.815 3.497 6.052.146.092.257.15.367.202 1.951.984 4.348.971 6.244.013.138-.065.248-.123.351-.188C14.66 13.815 16 11.497 16 9 16 5.14 12.859 2 9 2z"></path>
  <path d="M9,12c-2.206,0-4-1.794-4-4s1.794-4,4-4s4,1.794,4,4S11.206,12,9,12z M9,6C7.897,6,7,6.897,7,8s0.897,2,2,2s2-0.897,2-2
		S10.103,6,9,6z"></path>
  <path d="M9 18c-1.396 0-2.783-.328-4.011-.947-.163-.076-.354-.178-.53-.292C4.173 16.577 4 16.26 4 15.92V15c0-2.757 2.243-5 5-5 1.323 0 2.578.518 3.532 1.458C13.482 12.421 14 13.676 14 15v.92c0 .34-.173.657-.459.841-.177.114-.367.216-.558.305C11.783 17.672 10.396 18 9 18zM6 15.321c1.888.901 4.165.885 6 0V15c0-.795-.313-1.551-.882-2.128C10.551 12.313 9.795 12 9 12c-1.654 0-3 1.346-3 3V15.321zM13 15.92h.01H13zM39 42c-2.206 0-4-1.794-4-4s1.794-4 4-4 4 1.794 4 4S41.206 42 39 42zM39 36c-1.103 0-2 .897-2 2s.897 2 2 2 2-.897 2-2S40.103 36 39 36z"></path>
  <path d="M39 48c-1.396 0-2.783-.327-4.011-.947-.163-.076-.354-.178-.53-.292C34.173 46.577 34 46.26 34 45.92V45c0-2.757 2.243-5 5-5 1.323 0 2.578.518 3.532 1.458C43.482 42.422 44 43.677 44 45v.92c0 .34-.173.657-.459.841-.177.114-.367.216-.558.306C41.783 47.673 40.396 48 39 48zM36 45.321c1.888.9 4.164.885 6 0V45c0-.795-.313-1.551-.882-2.128C40.551 42.313 39.795 42 39 42c-1.654 0-3 1.346-3 3V45.321zM43 45.92h.01H43zM9 42c-2.206 0-4-1.794-4-4s1.794-4 4-4 4 1.794 4 4S11.206 42 9 42zM9 36c-1.103 0-2 .897-2 2s.897 2 2 2 2-.897 2-2S10.103 36 9 36z"></path>
  <path d="M9 48c-1.396 0-2.783-.327-4.011-.947-.163-.076-.354-.178-.53-.292C4.173 46.577 4 46.26 4 45.92V45c0-2.757 2.243-5 5-5 1.323 0 2.578.518 3.532 1.458C13.482 42.422 14 43.677 14 45v.92c0 .34-.173.657-.459.841-.177.114-.367.216-.558.306C11.783 47.673 10.396 48 9 48zM6 45.321c1.888.9 4.165.885 6 0V45c0-.795-.313-1.551-.882-2.128C10.551 42.313 9.795 42 9 42c-1.654 0-3 1.346-3 3V45.321zM13 45.92h.01H13zM39 48c-1.396 0-2.783-.327-4.011-.947-.163-.076-.354-.178-.53-.292C31.726 45.195 30 42.211 30 39c0-1.203.234-2.375.697-3.484.396-.923.912-1.74 1.537-2.44C33.929 31.124 36.397 30 39 30c4.963 0 9 4.037 9 9 0 3.211-1.726 6.195-4.503 7.787-.133.088-.323.189-.514.279C41.783 47.673 40.396 48 39 48zM39 32c-2.023 0-3.941.873-5.265 2.396-.489.549-.89 1.185-1.196 1.899C32.183 37.149 32 38.063 32 39c0 2.496 1.34 4.815 3.497 6.053.146.092.257.15.367.201 1.951.986 4.348.973 6.244.014.138-.064.248-.123.351-.188C44.66 43.815 46 41.496 46 39 46 35.141 42.859 32 39 32z"></path>
  <path d="M31 37h-6c-.553 0-1-.447-1-1s.447-1 1-1h6c.111 0 .207-.014.278-.039.517-.189 1.093.079 1.281.598.189.519-.078 1.093-.598 1.281C31.671 36.946 31.347 37 31 37zM32.979 34.74c-.494 0-.923-.365-.99-.868C31.923 33.375 31.498 33 31 33h-4c-.553 0-1-.447-1-1s.447-1 1-1h4c1.496 0 2.773 1.121 2.972 2.608.073.547-.312 1.05-.859 1.123C33.068 34.737 33.023 34.74 32.979 34.74z"></path>
  <path d="M31,33h-4c-0.553,0-1-0.447-1-1s0.447-1,1-1h4c0.552,0,1-0.448,1-1s-0.448-1-1-1h-4c-0.553,0-1-0.447-1-1s0.447-1,1-1h4
		c1.654,0,3,1.346,3,3S32.654,33,31,33z"></path>
  <path d="M31,29h-4c-0.553,0-1-0.447-1-1s0.447-1,1-1h4c0.552,0,1-0.448,1-1s-0.448-1-1-1h-4c-0.553,0-1-0.448-1-1s0.447-1,1-1h4
		c0.552,0,1-0.449,1-1s-0.448-1-1-1h-4c-0.553,0-1-0.448-1-1v-5.528C26,13.661,25.34,13,24.528,13c-0.562,0-1.066,0.312-1.317,0.814
		l-3.316,6.633c-0.246,0.493-0.848,0.694-1.342,0.447s-0.694-0.848-0.447-1.342l3.316-6.633C22.014,11.735,23.204,11,24.528,11
		C26.442,11,28,12.558,28,14.472V19h3c1.654,0,3,1.346,3,3c0,0.768-0.29,1.469-0.766,2C33.71,24.531,34,25.232,34,26
		C34,27.654,32.654,29,31,29z"></path>
  <path d="M25 37h-6.001c-.266 0-.52-.105-.707-.293S17.999 36.266 17.999 36L18 20c0-.552.448-1 1-1l0 0c.553 0 1 .448 1 1l-.001 15H25c.553 0 1 .447 1 1S25.553 37 25 37zM9 48c-1.396 0-2.783-.327-4.011-.947-.163-.076-.354-.178-.53-.292C1.726 45.195 0 42.211 0 39c0-4.963 4.037-9 9-9 2.586 0 5.047 1.111 6.751 3.05.67.761 1.223 1.651 1.596 2.575C17.781 36.715 18 37.849 18 39c0 3.211-1.726 6.195-4.503 7.787-.133.088-.323.189-.514.279C11.783 47.673 10.396 48 9 48zM9 32c-3.859 0-7 3.141-7 7 0 2.496 1.34 4.815 3.497 6.053.146.092.257.15.367.201 1.951.986 4.348.973 6.244.014.138-.064.248-.123.351-.188C14.66 43.815 16 41.496 16 39c0-.896-.171-1.781-.509-2.63-.288-.712-.719-1.404-1.242-1.999C12.925 32.864 11.011 32 9 32z"></path>
  <path d="M19,37h-2.58c-0.407,0-0.774-0.247-0.927-0.625c-0.29-0.717-0.721-1.409-1.244-2.004C14.089,34.188,14,33.953,14,33.71V20
		c0-0.552,0.447-1,1-1h4c0.553,0,1,0.448,1,1v16C20,36.553,19.553,37,19,37z M17.064,35H18V21h-2v12.345
		C16.413,33.856,16.772,34.417,17.064,35z"></path>
</svg>
