<svg xmlns="http://www.w3.org/2000/svg" width="64" height="64" enable-background="new 0 0 64 64" viewBox="0 0 64 64" id="analysis">
  <path fill="#010101" d="M7.146 31.716C3.205 31.716 0 28.51 0 24.57s3.205-7.146 7.146-7.146c3.94 0 7.146 3.206 7.146 7.146S11.086 31.716 7.146 31.716zM7.146 19.364c-2.871 0-5.206 2.336-5.206 5.206s2.335 5.206 5.206 5.206 5.206-2.336 5.206-5.206S10.017 19.364 7.146 19.364zM27.063 16.231c-3.94 0-7.146-3.205-7.146-7.146 0-3.94 3.206-7.146 7.146-7.146 3.94 0 7.146 3.205 7.146 7.146C34.208 13.026 31.003 16.231 27.063 16.231zM27.063 3.879c-2.871 0-5.206 2.336-5.206 5.207 0 2.871 2.335 5.206 5.206 5.206s5.206-2.336 5.206-5.206C32.269 6.214 29.934 3.879 27.063 3.879zM44.502 32.655c-3.94 0-7.147-3.206-7.147-7.146 0-3.94 3.206-7.146 7.147-7.146 3.94 0 7.146 3.205 7.146 7.146C51.648 29.449 48.442 32.655 44.502 32.655zM44.502 20.302c-2.871 0-5.207 2.336-5.207 5.207 0 2.871 2.336 5.207 5.207 5.207s5.206-2.336 5.206-5.207C49.708 22.638 47.373 20.302 44.502 20.302zM27.063 55.884c-3.94 0-7.146-3.205-7.146-7.146 0-3.94 3.206-7.146 7.146-7.146 3.94 0 7.146 3.206 7.146 7.146C34.208 52.679 31.003 55.884 27.063 55.884zM27.063 43.532c-2.871 0-5.206 2.336-5.206 5.207s2.335 5.206 5.206 5.206 5.206-2.335 5.206-5.206S29.934 43.532 27.063 43.532zM56.854 62.061c-3.94 0-7.146-3.206-7.146-7.146s3.205-7.146 7.146-7.146c3.94 0 7.146 3.205 7.146 7.146S60.794 62.061 56.854 62.061zM56.854 49.708c-2.871 0-5.206 2.335-5.206 5.206s2.335 5.206 5.206 5.206c2.871 0 5.207-2.335 5.207-5.206S59.725 49.708 56.854 49.708z"></path>
  <path fill="#010101" d="M11.896 21.592c-.308 0-.611-.146-.799-.419-.304-.441-.193-1.045.247-1.349l10.642-7.344c.441-.305 1.045-.194 1.349.248.304.441.193 1.045-.247 1.349l-10.642 7.344C12.277 21.537 12.085 21.592 11.896 21.592zM40.063 22.188c-.238 0-.475-.087-.663-.262l-8.476-7.94c-.391-.366-.411-.98-.045-1.371.365-.392.978-.411 1.37-.045l8.476 7.94c.391.366.411.98.045 1.371C40.581 22.085 40.322 22.188 40.063 22.188zM31.586 45.515c-.192 0-.385-.057-.555-.175-.438-.307-.545-.911-.239-1.35l9.652-13.799c.307-.439.912-.546 1.35-.239.438.307.546.911.239 1.35l-9.653 13.799C32.193 45.37 31.892 45.515 31.586 45.515zM50.679 55.884c-.053 0-.108-.005-.163-.013l-18.273-3.088c-.528-.09-.884-.59-.795-1.118.089-.528.581-.879 1.118-.794l18.273 3.088c.528.09.884.59.794 1.118C51.554 55.55 51.144 55.884 50.679 55.884z"></path>
</svg>
