<svg xmlns="http://www.w3.org/2000/svg" xml:space="preserve" id="notification" x="0" y="0" enable-background="new 0 0 512 512" version="1.1" viewBox="0 0 512 512">
  <path d="M438.438,178.407h-81.163c-3.337,0-6.044,2.707-6.044,6.044v81.155c0,3.337,2.707,6.044,6.044,6.044h81.163
	c3.337,0,6.044-2.707,6.044-6.044v-81.155C444.481,181.114,441.774,178.407,438.438,178.407z M432.394,259.563h-69.076v-69.068
	h69.076V259.563z M320.155,307.479c0,3.337-2.707,6.044-6.044,6.044H171.655c-3.337,0-6.044-2.707-6.044-6.044
	s2.707-6.044,6.044-6.044h142.457C317.448,301.435,320.155,304.142,320.155,307.479z M308.926,365.467
	c0,3.337-2.707,6.044-6.044,6.044H182.877c-3.337,0-6.044-2.707-6.044-6.044s2.707-6.044,6.044-6.044h120.006
	C306.219,359.423,308.926,362.13,308.926,365.467z M327.922,204.305c0,3.337-2.707,6.044-6.044,6.044H256.84
	c-3.337,0-6.044-2.707-6.044-6.044c0-3.337,2.707-6.044,6.044-6.044h65.039C325.215,198.262,327.922,200.969,327.922,204.305z
	 M327.922,233.374c0,3.337-2.707,6.044-6.044,6.044H134.528c-3.337,0-6.044-2.707-6.044-6.044c0-3.337,2.707-6.044,6.044-6.044
	h187.351C325.215,227.33,327.922,230.037,327.922,233.374z M459.96,157.861H150.471l-22.459-31.06
	c-1.149-1.59-3.1-2.636-4.958-2.502c-1.959,0.024-3.793,0.992-4.91,2.605l-21.42,30.958H53.719
	c-11.292,0-20.484,9.191-20.484,20.484v93.361c0,11.292,9.191,20.484,20.484,20.484h1.479v37.552c0,11.3,9.191,20.491,20.484,20.491
	h7.909v26.488c0,11.292,9.191,20.484,20.484,20.484h305.531c11.292,0,20.484-9.191,20.484-20.484v-26.488h7.909
	c11.292,0,20.484-9.191,20.484-20.491v-37.552h1.479c11.292,0,20.484-9.191,20.484-20.484v-93.361
	C480.444,167.052,471.253,157.861,459.96,157.861z M418.001,376.72c0,4.627-3.769,8.396-8.396,8.396H104.074
	c-4.627,0-8.396-3.769-8.396-8.396v-26.488h232.308v25.142c0,3.337,2.707,6.044,6.044,6.044H396.4c3.337,0,6.044-2.707,6.044-6.044
	v-25.142h15.557V376.72z M340.072,369.331v-19.099h50.284v19.099H340.072z M446.394,329.741c0,4.635-3.769,8.404-8.396,8.404H396.4
	h-62.372H75.682c-4.627,0-8.396-3.769-8.396-8.404v-37.552h273.81v33.531c0,3.337,2.707,6.044,6.044,6.044h72.964
	c3.337,0,6.044-2.707,6.044-6.044v-33.531h20.248V329.741z M353.183,319.676v-24.395h60.876v24.395H353.183z M468.357,271.705
	c0,4.627-3.769,8.396-8.396,8.396H53.719c-4.627,0-8.396-3.769-8.396-8.396v-93.361c0-4.627,3.769-8.396,8.396-8.396h46.177
	c1.983,0,3.84-0.976,4.973-2.605l18.359-26.535l19.264,26.637c1.133,1.574,2.959,2.502,4.895,2.502H459.96
	c4.627,0,8.396,3.769,8.396,8.396V271.705z"></path>
</svg>
