<svg xmlns="http://www.w3.org/2000/svg" enable-background="new 0 0 512 512" viewBox="0 0 512 512" id="camera">
  <path d="M433.254,470.634l-15.97-20.613l1.993-2.298c1.39-1.604,2.086-3.692,1.935-5.81c-0.15-2.116-1.136-4.086-2.739-5.476
		l-24.18-20.961c-3.338-2.894-8.39-2.533-11.285,0.804l-106.026-91.916c-2.826-5.075-7.438-9.022-12.981-10.989V304h16
		c4.418,0,8-3.582,8-8v-16h16v8c0,4.418,3.582,8,8,8h48c13.233,0,24-10.767,24-24s-10.767-24-24-24h-48c-4.418,0-8,3.582-8,8v8h-16
		v-8c0-14.883-10.214-27.426-24-30.987V216h13.887c9.987,0,18.113-8.126,18.113-18.113V192h57c12.683,0,23-10.317,23-23V71
		c0-11.56-8.573-21.151-19.694-22.759l-4.545-18.181c-0.89-3.562-4.09-6.06-7.761-6.06h-16c-3.671,0-6.871,2.498-7.761,6.06
		L315.754,48h-13.508l-4.756-19.023C295.58,21.336,288.745,16,280.87,16h-49.74c-7.875,0-14.71,5.336-16.62,12.977L209.754,48H200
		v-9.548C200,30.483,193.517,24,185.548,24h-19.096C158.483,24,152,30.483,152,38.452v10.641c-9.27,2.969-16,11.665-16,21.907v98
		c0,12.683,10.317,23,23,23h57v5.887c0,9.987,8.126,18.113,18.113,18.113H248v9.013c-13.786,3.562-24,16.104-24,30.987v40
		c0,4.418,3.582,8,8,8h16v9.376c-5.544,1.967-10.156,5.914-12.981,10.989l-106.026,91.916c-2.893-3.336-7.944-3.7-11.285-0.804
		l-24.18,20.961c-1.604,1.39-2.589,3.359-2.739,5.476c-0.151,2.117,0.545,4.206,1.935,5.81l1.992,2.298l-15.97,20.613
		c-2.335,3.015-2.219,7.259,0.279,10.14l10.48,12.089c1.564,1.805,3.789,2.76,6.049,2.76c1.349,0,2.71-0.341,3.949-1.045
		l22.67-12.884l1.992,2.298c1.582,1.825,3.809,2.76,6.049,2.76c1.856,0,3.723-0.644,5.236-1.955l24.179-20.961
		c3.339-2.895,3.698-7.946,0.805-11.285L232,390.508V416c-4.418,0-8,3.582-8,8v32c0,4.418,3.582,8,8,8h3.042l5.114,25.569
		c0.748,3.739,4.031,6.431,7.845,6.431h16c3.813,0,7.097-2.691,7.845-6.431L276.958,464H280c4.418,0,8-3.582,8-8v-32
		c0-4.418-3.582-8-8-8v-25.492l71.565,62.042l0,0c-2.894,3.339-2.534,8.391,0.805,11.285l24.179,20.961
		c1.514,1.312,3.379,1.955,5.236,1.955c2.239,0,4.467-0.935,6.049-2.76l1.993-2.298l22.669,12.884
		c1.24,0.705,2.601,1.045,3.949,1.045c2.259,0,4.484-0.956,6.049-2.76l10.48-12.089
		C435.473,477.893,435.589,473.648,433.254,470.634z M320,264h40c4.411,0,8,3.589,8,8s-3.589,8-8,8h-40V264z M360,150.241
		l-19.825-3.965c-2.419-0.483-4.175-2.625-4.175-5.092V98.815c0-2.467,1.756-4.608,4.175-5.092L360,89.759V150.241z M334.246,40
		h3.508l2,8h-7.508L334.246,40z M184,40v8h-16v-8H184z M152,169V71c0-3.859,3.141-7,7-7h57c3.671,0,6.871-2.498,7.761-6.06
		l6.271-25.083c0.127-0.505,0.578-0.857,1.099-0.857h49.74c0.521,0,0.972,0.353,1.099,0.857l6.271,25.083
		c0.89,3.562,4.09,6.06,7.761,6.06h57c3.859,0,7,3.141,7,7v2.441l-22.964,4.593C327.165,80.009,320,88.748,320,98.815v42.369
		c0,10.067,7.165,18.807,17.036,20.781L360,166.559V169c0,3.859-3.141,7-7,7h-97h-97C155.141,176,152,172.859,152,169z M232,197.887
		V192h48v5.887c0,1.165-0.948,2.113-2.113,2.113h-43.773C232.948,200,232,199.052,232,197.887z M240,256c0-8.822,7.178-16,16-16
		s16,7.178,16,16v32h-32V256z M97.3,477.427l-1.889-2.179l9.993-12.898l6.081,7.014L97.3,477.427z M131.016,467.466l-20.962-24.179
		l12.09-10.48l20.961,24.179L131.016,467.466z M149.954,440.46l-10.481-12.09L232,348.158v21.175L149.954,440.46z M272,432v16h-32
		v-16H272z M257.441,480h-2.883l-3.2-16h9.283L257.441,480z M248,416v-80c0-4.411,3.589-8,8-8s8,3.589,8,8v80H248z M280,369.332
		v-21.174l92.527,80.213l-10.481,12.089L280,369.332z M380.984,467.466l-12.089-10.48l20.961-24.179l12.09,10.48L380.984,467.466z
		 M414.7,477.427l-14.186-8.062l6.081-7.014l9.993,12.898L414.7,477.427z"></path>
  <path d="M168.02 72h-.01c-4.418 0-7.995 3.582-7.995 8s3.587 8 8.005 8c4.419 0 8-3.582 8-8S172.438 72 168.02 72zM312 120c0-30.879-25.121-56-56-56s-56 25.121-56 56 25.121 56 56 56S312 150.879 312 120zM256 160c-22.056 0-40-17.944-40-40s17.944-40 40-40 40 17.944 40 40S278.056 160 256 160z"></path>
  <path d="M287.881 117.222c-.235-2.719-1.839-5.13-4.256-6.396-2.415-1.267-5.311-1.216-7.681.138C274.738 111.651 273.411 112 272 112c-4.411 0-8-3.589-8-8 0-1.411.349-2.738 1.037-3.944 1.354-2.369 1.405-5.265.138-7.681-1.267-2.417-3.678-4.021-6.396-4.256C257.848 88.039 256.938 88 256 88c-17.645 0-32 14.355-32 32s14.355 32 32 32 32-14.355 32-32C288 119.062 287.961 118.152 287.881 117.222zM256 136c-8.822 0-16-7.178-16-16 0-5.947 3.262-11.147 8.091-13.905 1.005 11.565 10.249 20.81 21.814 21.814C267.147 132.738 261.947 136 256 136zM240 56h32c4.418 0 8-3.582 8-8s-3.582-8-8-8h-32c-4.418 0-8 3.582-8 8S235.582 56 240 56z"></path>
</svg>
