<svg xmlns="http://www.w3.org/2000/svg" id="partnership" viewBox="0 0 64 64">
  <path d="m57.4,36.64c.98-.91,1.6-2.2,1.6-3.64v-4c0-2.76-2.24-5-5-5h-2c-2.76,0-5,2.24-5,5v4c0,1.4.59,2.67,1.52,3.58-.55.29-1.06.68-1.48,1.17l-4.5,5.25h-8.54c-.77,0-1.47.3-2,.78-.53-.48-1.23-.78-2-.78h-8.54l-4.5-5.25c-.42-.49-.92-.88-1.48-1.17.93-.91,1.52-2.17,1.52-3.58v-4c0-2.76-2.24-5-5-5h-2c-2.76,0-5,2.24-5,5v4c0,1.44.62,2.73,1.6,3.64-1.54.85-2.6,2.48-2.6,4.36v16c0,.55.45,1,1,1s1-.45,1-1v-16c0-1.65,1.35-3,3-3h4.16c.88,0,1.71.38,2.28,1.05l4.8,5.6c.19.22.47.35.76.35h9c.55,0,1,.45,1,1s-.45,1-1,1h-10.08c-.92,0-1.77-.41-2.34-1.13l-2.8-3.5c-.35-.43-.97-.5-1.41-.16-.43.35-.5.97-.16,1.41l1.81,2.26s-.02.08-.02.12v11c0,.55.45,1,1,1s1-.45,1-1v-8.95c.84.61,1.85.95,2.92.95h10.08c.77,0,1.47-.3,2-.78.53.48,1.23.78,2,.78h10.08c1.07,0,2.08-.34,2.92-.95v8.95c0,.55.45,1,1,1s1-.45,1-1v-11s-.02-.08-.02-.12l1.81-2.26c.34-.43.27-1.06-.16-1.41-.43-.34-1.06-.27-1.41.16l-2.8,3.5c-.57.72-1.43,1.13-2.34,1.13h-10.08c-.55,0-1-.45-1-1s.45-1,1-1h9c.29,0,.57-.13.76-.35l4.8-5.6c.57-.67,1.4-1.05,2.28-1.05h4.16c1.65,0,3,1.35,3,3v16c0,.55.45,1,1,1s1-.45,1-1v-16c0-1.88-1.06-3.5-2.6-4.36ZM10,26h2c1.3,0,2.4.84,2.82,2h-1.75c-1.67,0-3.13,1.13-3.53,2.76-.18.73-.84,1.24-1.59,1.24h-.94v-3c0-1.65,1.35-3,3-3Zm0,10c-1.3,0-2.4-.84-2.82-2h.75c1.67,0,3.13-1.13,3.53-2.76.18-.73.84-1.24,1.59-1.24h1.94v3c0,1.65-1.35,3-3,3h-2Zm42-10h2c1.65,0,3,1.35,3,3v3h-.94c-.75,0-1.41-.51-1.59-1.24-.41-1.62-1.86-2.76-3.53-2.76h-1.75c.41-1.16,1.51-2,2.82-2Zm0,10c-1.65,0-3-1.35-3-3v-3h1.94c.75,0,1.41.51,1.59,1.24.41,1.62,1.86,2.76,3.53,2.76h.75c-.41,1.16-1.51,2-2.82,2h-2Z"></path>
  <path d="m32,30c6.62,0,12-5.38,12-12s-5.38-12-12-12-12,5.38-12,12,5.38,12,12,12Zm0-22c5.51,0,10,4.49,10,10s-4.49,10-10,10-10-4.49-10-10,4.49-10,10-10Z"></path>
  <path d="m29.29,22.46c.2.2.45.29.71.29s.51-.1.71-.29l7.5-7.5c.39-.39.39-1.02,0-1.41s-1.02-.39-1.41,0l-6.79,6.79-2.79-2.79c-.39-.39-1.02-.39-1.41,0s-.39,1.02,0,1.41l3.5,3.5Z"></path>
</svg>
