<svg xmlns="http://www.w3.org/2000/svg" viewBox="0 0 64 64" id="strategy">
  <path d="M34.52 25.985a.746.746 0 0 1-.75-.745v-.01a.738.738 0 0 1 .022-.182 3.372 3.372 0 0 0-.117-1.992.75.75 0 0 1 .705-1.006h5.96a.75.75 0 0 1 0 1.5h-5a4.642 4.642 0 0 1 .05.67 4.93 4.93 0 0 1-.138 1.173.754.754 0 0 1-.732.592zM22.74 23.55h-2.05a.75.75 0 0 1-.75-.75V4a.75.75 0 0 1 .75-.75h19.65a.75.75 0 0 1 0 1.5h-18.9v17.3h1.3a.75.75 0 0 1 0 1.5z"></path>
  <path d="M60 24.95a.733.733 0 0 1-.75-.73V4.75H41.09v5.49a.75.75 0 1 1-1.5 0V4a.75.75 0 0 1 .75-.75H60a.75.75 0 0 1 .75.75v20.18a.768.768 0 0 1-.75.77Z"></path>
  <path d="M34.62 15a.75.75 0 0 1-.75-.75 5.03 5.03 0 0 1 5.02-5.03 5.082 5.082 0 0 1 1.701.314.75.75 0 0 1-.503 1.413 3.642 3.642 0 0 0-1.198-.227 3.529 3.529 0 0 0-3.52 3.53.75.75 0 0 1-.75.75Z"></path>
  <path d="M38.89 19.27a5.026 5.026 0 0 1-5.02-5.02.75.75 0 0 1 1.5 0 3.522 3.522 0 0 0 4.718 3.303.75.75 0 0 1 .503 1.413 5.135 5.135 0 0 1-1.7.304Z"></path>
  <path d="M40.39 24.97h-.05a.75.75 0 0 1-.75-.75v-5.96a.75.75 0 1 1 1.5 0v5.773a.697.697 0 0 1 .025.187.73.73 0 0 1-.725.75Z"></path>
  <path d="M40.389 29.203a.75.75 0 0 1-.75-.75v-4.275a.75.75 0 0 1 .75-.75h5.96a.75.75 0 0 1 0 1.5h-5.21v3.525a.75.75 0 0 1-.75.75Z"></path>
  <path d="M44.663 33.477a.75.75 0 0 1-.75-.75 3.528 3.528 0 0 0-3.524-3.524.75.75 0 0 1 0-1.5 5.03 5.03 0 0 1 5.024 5.024.75.75 0 0 1-.75.75Z"></path>
  <path d="M40.389 37.751a.75.75 0 0 1 0-1.5 3.528 3.528 0 0 0 3.524-3.524.75.75 0 0 1 1.5 0 5.03 5.03 0 0 1-5.024 5.024Z"></path>
  <path d="M60 43.75H40.389a.75.75 0 0 1-.75-.75v-5.999a.75.75 0 0 1 1.5 0v5.249H59.25V24.928h-4.875a.75.75 0 0 1 0-1.5H60a.75.75 0 0 1 .75.75V43a.75.75 0 0 1-.75.75Z"></path>
  <path d="M54.375 24.928a.75.75 0 0 1-.707-1.001 3.466 3.466 0 0 0 .219-1.174 3.528 3.528 0 0 0-3.525-3.524.75.75 0 1 1 0-1.5 5.03 5.03 0 0 1 5.025 5.024 4.937 4.937 0 0 1-.305 1.677.75.75 0 0 1-.707.498Z"></path>
  <path d="M46.35 24.928a.75.75 0 0 1-.707-.498 4.936 4.936 0 0 1-.305-1.677 5.03 5.03 0 0 1 5.024-5.024.75.75 0 0 1 0 1.5 3.528 3.528 0 0 0-3.524 3.524 3.466 3.466 0 0 0 .218 1.174.75.75 0 0 1-.706 1.001zM15.61 44.01a.75.75 0 0 1-.673-.418l-5.39-10.91a.75.75 0 0 1 .34-1.004l5.39-2.67a.75.75 0 1 1 .666 1.344l-4.718 2.337 5.057 10.239a.75.75 0 0 1-.672 1.082z"></path>
  <path d="M19.454 32.813a5.039 5.039 0 0 1-4.516-2.8.75.75 0 1 1 1.344-.666 3.533 3.533 0 0 0 4.725 1.601.75.75 0 1 1 .666 1.344 4.984 4.984 0 0 1-2.219.521Z"></path>
  <path d="M21.34 32.37a.75.75 0 0 1-.334-1.421 3.535 3.535 0 0 0 1.592-4.726.75.75 0 1 1 1.344-.666 5.037 5.037 0 0 1-2.268 6.735.741.741 0 0 1-.334.078Z"></path>
  <path d="M29.75 30.09a.75.75 0 0 1-.672-.417l-2.308-4.668-3.17 1.558a.75.75 0 0 1-.66-1.346l3.837-1.889a.75.75 0 0 1 1.005.34l2.64 5.339a.75.75 0 0 1-.672 1.083Z"></path>
  <path d="M36.63 31.17a.75.75 0 0 1-.674-.421 3.474 3.474 0 0 0-3.647-1.927 3.526 3.526 0 0 0-1.007.305.853.853 0 0 1-.061.026 3.5 3.5 0 0 0-.953.71.75.75 0 1 1-1.076-1.046 4.888 4.888 0 0 1 1.369-1.01c.023-.012.05-.024.08-.035a5 5 0 0 1 6.643 2.319.75.75 0 0 1-.674 1.079Z"></path>
  <path d="M33.299 37.29a.75.75 0 0 1-.094-1.494 3.428 3.428 0 0 0 1.154-.324 3.517 3.517 0 0 0 1.6-4.718.75.75 0 0 1 1.342-.669 5.017 5.017 0 0 1-2.27 6.728 4.87 4.87 0 0 1-1.636.471.8.8 0 0 1-.096.006Z"></path>
  <path d="M19.19 51.25a.75.75 0 0 1-.673-.418l-1.07-2.17a.75.75 0 1 1 1.346-.663l.738 1.496 15.544-7.685-2.447-4.937a.75.75 0 1 1 1.344-.666l2.78 5.61a.75.75 0 0 1-.34 1.005l-16.89 8.35a.748.748 0 0 1-.332.078zm-6.118-5.251a.75.75 0 0 1-.702-.487c-.004-.01-.373-.993-.672-1.598a3.536 3.536 0 0 0-1.172-.95.75.75 0 0 1 .712-1.32 4.738 4.738 0 0 1 1.805 1.606c.333.673.715 1.692.731 1.735A.75.75 0 0 1 13.072 46z"></path>
  <path d="M17.41 54.926a4.808 4.808 0 0 1-2.688-.803.753.753 0 1 1 .903-1.202 3.547 3.547 0 0 0 3.48.098 3.471 3.471 0 0 0 2.02-3.69.75.75 0 0 1 1.47-.298 4.968 4.968 0 0 1-2.821 5.33 5.288 5.288 0 0 1-2.363.565Z"></path>
  <path d="M4 60.46a.75.75 0 0 1-.75-.75V46.62a.748.748 0 0 1 .15-.449l4.76-6.37a3.023 3.023 0 0 1 2.39-1.24l2.472-.061a.776.776 0 0 1 .768.732.75.75 0 0 1-.732.768l-2.48.06a1.525 1.525 0 0 0-1.21.63L4.75 46.87v11.966c1.24-.193 1.981-.325 2.23-.384l7.256-5.153a1.965 1.965 0 0 0 .34-.303 2.135 2.135 0 0 0 .565-1.349A3.612 3.612 0 0 1 16.15 49.3l6.34-6.63a1.807 1.807 0 0 0 .501-1.24 1.774 1.774 0 0 0-.55-1.29 1.795 1.795 0 0 0-2.502.013 132.12 132.12 0 0 1-3.823 3.661c-2.99 2.72-3.954 3.225-4.46 3.36a.75.75 0 1 1-.39-1.448c.174-.046.96-.401 3.84-3.02a131.526 131.526 0 0 0 3.777-3.619 3.304 3.304 0 0 1 4.6-.025 3.286 3.286 0 0 1 .089 4.648l-6.34 6.63a2.111 2.111 0 0 0-.591 1.372 3.622 3.622 0 0 1-.947 2.285 3.408 3.408 0 0 1-.59.525l-7.35 5.22c-.18.121-.31.208-3.641.71A.789.789 0 0 1 4 60.46Z"></path>
</svg>
