<svg xmlns="http://www.w3.org/2000/svg" width="96" height="96" fill="none" viewBox="0 0 96 96" id="clapperboard">
  <path stroke="#000" stroke-linecap="round" stroke-width="5" d="M19 87H78C80.2091 87 82 85.2091 82 83V70.3223 56.0616 40C82 37.7909 80.2091 36 78 36H50.1341 19C16.7909 36 15 37.7909 15 40V69.3555 83C15 85.2091 16.7909 87 19 87zM14.847 35.967L76.0894 19.5571C78.0084 19.0429 79.1472 17.0705 78.633 15.1515L77.8369 12.1805 77.7523 11.8646C77.1805 9.73076 74.9872 8.46443 72.8533 9.0362L45.937 16.2484 15.8637 24.3065C13.7298 24.8783 12.4635 27.0716 13.0353 29.2055L13.862 32.291 14.847 35.967z"></path>
  <path stroke="#000" stroke-width="5" d="M59.3303 12.6602L72.8025 20.4383M32.2844 19.9062L45.7566 27.6844M18.7615 23.5312L32.2337 31.3094"></path>
  <path stroke="#000" stroke-linecap="round" stroke-width="5" d="M15 46L82 46"></path>
  <path stroke="#000" stroke-width="5" d="M56.7324 62.5062C59.4689 64.0316 59.4689 67.9684 56.7324 69.4938L47.1976 74.8089C44.5314 76.2952 41.25 74.3676 41.25 71.3151L41.25 60.6849C41.25 57.6324 44.5314 55.7048 47.1976 57.1911L56.7324 62.5062zM33 36L22 46M47 36L36 46M61 36L50 46M45.8074 16.2832L59.2796 24.0614M75 36L64 46"></path>
</svg>
