<svg xmlns="http://www.w3.org/2000/svg" viewBox="0 0 32 32" id="speaker">
  <path d="M26.214,13.056a2.522,2.522,0,0,0-.284-.316A.487.487,0,0,0,26,12.5V9.545a2.513,2.513,0,0,0-.767-1.8l-.856-.824a.472.472,0,0,0-.076-.048,1.487,1.487,0,0,0-.271-1.713l-.707-.707A1.5,1.5,0,1,0,21.2,6.573l.707.707a1.445,1.445,0,0,0,1.713.271.479.479,0,0,0,.062.089l.856.824A1.509,1.509,0,0,1,25,9.545v2.61A2.5,2.5,0,0,0,24.173,12H22.39A5.519,5.519,0,0,0,18,9.037c0-.013,0-.024,0-.037V7.5a.472.472,0,0,0-.01-.051A3.982,3.982,0,0,0,16.749.076.487.487,0,0,0,16.5,0h-.26a.471.471,0,0,0-.08.016C16.106.014,16.055,0,16,0a3.987,3.987,0,0,0-1.99,7.449A.472.472,0,0,0,14,7.5V9c0,.013,0,.024,0,.037A5.519,5.519,0,0,0,9.61,12H7.827a2.5,2.5,0,0,0-2.358,3.332,2.5,2.5,0,0,0,2.119,1.649L9.844,28.016A1.995,1.995,0,0,0,10,32H22a1.995,1.995,0,0,0,.156-3.984l2.257-11.035a2.5,2.5,0,0,0,2.119-1.649A2.469,2.469,0,0,0,26.214,13.056ZM23.323,6.573a.5.5,0,0,1-.707,0l-.707-.707a.5.5,0,0,1,.707-.707l.707.707A.5.5,0,0,1,23.323,6.573ZM16,1a3,3,0,0,1,2.791,1.921l-2.517-.715a2.51,2.51,0,0,0-1.618.086l-1.431.577A3,3,0,0,1,16,1ZM13,4a.508.508,0,0,0,.188-.036L15.03,3.22A1.521,1.521,0,0,1,16,3.168l2.861.813a.49.49,0,0,0,.136.01V4a3,3,0,0,1-6,0Zm4,3.858V9a1,1,0,0,1-2,0V7.858a3.593,3.593,0,0,0,2,0Zm-2.713,2.158a1.983,1.983,0,0,0,3.426,0A4.522,4.522,0,0,1,21.233,12H10.767A4.522,4.522,0,0,1,14.287,10.016ZM23,30a1,1,0,0,1-1,1H10a1,1,0,0,1,0-2H22A1,1,0,0,1,23,30Zm-1.862-2H10.862L8.612,17H23.388Zm4.45-13a1.5,1.5,0,0,1-1.415,1H7.827a1.5,1.5,0,0,1-1.415-1,1.5,1.5,0,0,1,1.415-2H24.173a1.5,1.5,0,0,1,1.415,2Z"></path>
</svg>
